<svg xmlns="http://www.w3.org/2000/svg" width="512" height="554" viewBox="0 0 512 554" version="1.1">
	<path d="M 380.702 1.750 C 380.410 2.712, 377.734 8.900, 374.756 15.500 C 350.761 68.673, 328.508 145.084, 316.021 217.175 C 310.684 247.991, 309.658 254.587, 301.974 307.500 C 299.817 322.350, 296.900 341.250, 295.490 349.500 C 289.456 384.818, 291.449 397.898, 304.711 410.019 C 319.402 423.445, 343.632 422.716, 357.517 408.430 C 367.351 398.311, 369.707 385.611, 365.019 368 C 364.361 365.525, 362.260 358.325, 360.351 352 C 349.851 317.202, 344.643 276.936, 344.636 230.500 C 344.629 180.614, 348.953 142.303, 361.114 84.500 C 365.842 62.026, 379.236 10.368, 382.622 1.541 C 382.948 0.694, 382.768 0, 382.224 0 C 381.679 0, 380.994 0.788, 380.702 1.750 M 262.894 40.825 C 244.371 63.337, 224.150 91.599, 211.969 112 C 210.491 114.475, 206.919 120.325, 204.030 125 C 179.127 165.302, 150.835 220.627, 126.302 277 C 121.634 287.725, 112.463 308.440, 105.922 323.034 C 90.831 356.700, 88.959 362.061, 88.281 373.560 C 87.491 386.973, 89.373 392.570, 97.327 400.469 C 105.904 408.985, 111.066 411.248, 123.153 411.791 C 130.425 412.118, 134.047 411.813, 137.831 410.556 C 147.750 407.262, 154.912 400.053, 159.105 389.145 C 161.151 383.821, 161.287 381.652, 161.498 351 C 161.734 316.591, 162.583 306.663, 167.569 280 C 178.336 222.427, 201.694 159.200, 235.801 95.309 C 244.130 79.705, 265.810 42.631, 271.642 34.018 C 274.072 30.429, 274.555 28.944, 273.250 29.075 C 272.837 29.117, 268.177 34.404, 262.894 40.825 M 318.720 47.163 C 284.805 102.190, 249.241 186.200, 224.177 270.500 C 212.576 309.516, 200.208 357.919, 191.470 398.500 C 184.922 428.908, 180.106 450.299, 177.511 460.500 C 170.701 487.273, 169.567 494.023, 169.533 508 C 169.501 521.046, 169.604 521.719, 172.589 528.018 C 180.575 544.871, 198.899 555.160, 218.359 553.721 C 227.929 553.013, 234.561 550.808, 241.935 545.885 C 252.583 538.774, 258.610 528.285, 259.683 515.001 C 260.086 510.005, 259.473 505.028, 257.034 493.500 C 249.462 457.707, 247.579 443.379, 245.933 409.050 C 243.619 360.779, 249.031 295.305, 259.617 243.500 C 271.691 184.413, 288.404 128.809, 312.613 67.183 C 320.479 47.160, 322.201 41.515, 318.720 47.163 M 220.500 51.672 C 174.209 57.416, 132.492 73.969, 96.762 100.770 C 46.948 138.135, 14.298 192.678, 2.342 258.500 C 0.873 266.586, 0.525 273.764, 0.525 296 C 0.525 327.107, 1.653 335.778, 9.161 362.410 C 28.218 430.013, 75.437 486.150, 140.282 518.293 C 147.552 521.897, 154.575 525.155, 155.888 525.534 C 158.100 526.171, 158.226 526.011, 157.605 523.361 C 157.236 521.788, 156.662 516.312, 156.328 511.194 L 155.722 501.888 149.611 498.829 C 139.111 493.573, 122.270 483.094, 111.674 475.223 C 84.384 454.952, 63.377 430.274, 47.641 400 C 37.422 380.340, 32.211 366.241, 27.485 345.466 C 23.114 326.252, 22.535 320.355, 22.574 295.500 C 22.615 269.723, 23.869 259.269, 29.541 237.439 C 39.338 199.733, 63.101 159.571, 90.737 134.011 C 123.637 103.583, 169.892 81.115, 212.353 74.936 L 221.206 73.647 228.280 64.074 C 232.170 58.808, 236.019 53.712, 236.832 52.750 C 238.220 51.106, 237.861 51.009, 230.905 51.150 C 226.832 51.232, 222.150 51.467, 220.500 51.672 M 372.627 95.893 C 370.342 108.382, 370.432 109.241, 374.250 111.445 C 376.038 112.477, 382.159 116.946, 387.853 121.376 C 433.055 156.543, 461.681 206.721, 470.434 266.128 C 472.696 281.478, 472.524 310.879, 470.075 327.522 C 462.619 378.198, 438.084 426.313, 402.752 459.551 C 387.745 473.669, 366.469 488.732, 349.500 497.252 C 329.369 507.360, 304.344 515.492, 284.122 518.498 C 278.414 519.346, 273.411 520.246, 273.004 520.498 C 272.597 520.749, 271.969 523.103, 271.608 525.728 C 271.248 528.352, 269.641 533.190, 268.038 536.478 C 266.434 539.765, 265.322 542.655, 265.567 542.900 C 266.371 543.704, 289.618 540.055, 302.689 537.073 C 332.346 530.306, 357.283 519.658, 383.495 502.567 C 412.217 483.840, 436.094 459.413, 455.637 428.767 C 473.168 401.276, 487.207 363.131, 492.171 329.500 C 494.247 315.442, 493.923 273.305, 491.634 259.500 C 479.973 189.168, 443.523 131.433, 387.096 93.917 C 381.373 90.113, 376.143 87, 375.473 87 C 374.728 87, 373.622 90.457, 372.627 95.893" stroke="none" fill="#27496d" fill-rule="evenodd"/>
</svg>