<svg xmlns="http://www.w3.org/2000/svg" width="2048" height="2216" viewBox="0 0 2048 2216" version="1.1">
  <path d="M 1496.848 83.025 C 1492.683 85.457, 1486.793 100.257, 1485.516 111.500 C 1484.939 116.574, 1484.154 118.348, 1480.429 123 C 1469.396 136.778, 1467.022 144.584, 1472.143 150.245 C 1480.965 159.999, 1490.705 149.010, 1491.772 128.098 C 1492.233 119.060, 1492.752 116.646, 1495.546 110.559 C 1503.154 93.979, 1503.866 78.928, 1496.848 83.025 M 1453.587 183.507 C 1446.976 189.634, 1444.304 203.496, 1448.809 208.295 C 1451.691 211.365, 1461.222 214.246, 1464.444 213.021 C 1471.310 210.411, 1477.192 193.905, 1473.861 186.595 C 1471.234 180.828, 1458.561 178.898, 1453.587 183.507 M 1039.193 187.023 C 1033.285 190.626, 1031.825 198.052, 1036.598 200.227 C 1040.855 202.166, 1047.043 196.199, 1047.220 189.982 C 1047.364 184.890, 1044.453 183.817, 1039.193 187.023 M 1017.202 215.049 C 1010.814 217.612, 994.626 236.113, 977.089 260.892 C 968.722 272.715, 967.537 275.004, 966.051 282.215 C 964.795 288.306, 963.291 290.041, 954.965 295 C 950.181 297.849, 945.914 303.113, 933.052 322.033 C 919.959 341.294, 919.531 344.601, 929.199 351.819 C 932.115 353.996, 936.051 357.402, 937.946 359.389 C 943.450 365.157, 949.794 363.532, 955.767 354.826 C 960.995 347.205, 978.779 315.344, 981.745 308.286 C 983.322 304.533, 986.432 298.771, 988.656 295.481 C 996.631 283.688, 1020.989 244.024, 1024.564 237.010 C 1032.578 221.284, 1028.913 210.349, 1017.202 215.049 M 1429.799 251.690 C 1425.710 254.285, 1422.670 260.845, 1417.065 279.168 C 1414.261 288.336, 1408.646 304.776, 1404.587 315.701 C 1393.295 346.094, 1392.410 350.024, 1395.507 356.013 C 1396.917 358.740, 1404.112 362, 1408.719 362 C 1409.464 362, 1414.316 363.443, 1419.500 365.206 C 1430.330 368.890, 1433.181 368.567, 1436.252 363.308 C 1438.588 359.308, 1443.879 338.055, 1448.528 314 C 1450.495 303.825, 1453.399 289.875, 1454.982 283 C 1461.058 256.618, 1460.458 254.933, 1444 252.144 C 1440.425 251.538, 1436.375 250.802, 1435 250.509 C 1433.525 250.195, 1431.393 250.678, 1429.799 251.690 M 907.817 362.901 C 901.826 366.701, 895.069 376.331, 873.020 412.500 C 869.332 418.550, 862.698 428.900, 858.277 435.500 C 853.857 442.100, 846.751 453.575, 842.486 461 C 838.221 468.425, 832.386 477.875, 829.519 482 C 826.652 486.125, 821.001 495.350, 816.961 502.500 C 812.921 509.650, 804.907 522.925, 799.152 532 C 793.397 541.075, 784.946 555.368, 780.373 563.763 C 775.800 572.158, 768.473 585.048, 764.091 592.408 C 759.709 599.768, 753.796 610.449, 750.952 616.145 C 748.107 621.840, 743.367 630.325, 740.418 635 C 731.236 649.559, 717.307 674.772, 708.653 692.500 C 704.089 701.850, 696.584 715.567, 691.976 722.983 C 687.367 730.399, 681.030 742.138, 677.894 749.071 C 670.153 766.177, 657.452 790.492, 647.124 807.972 C 642.422 815.932, 635.938 828.532, 632.716 835.972 C 625.685 852.207, 601.215 902.864, 588.986 926.500 C 584.148 935.850, 577.627 950.025, 574.494 958 C 571.361 965.975, 565.941 977.906, 562.450 984.512 C 558.958 991.119, 553.826 1002.269, 551.044 1009.291 C 548.263 1016.312, 543.263 1027.490, 539.935 1034.130 C 533.144 1047.677, 522.826 1070.665, 519.795 1079 C 518.696 1082.025, 515.614 1089.450, 512.949 1095.500 C 510.283 1101.550, 505.661 1112.125, 502.678 1119 C 499.695 1125.875, 493.556 1139.600, 489.035 1149.500 C 484.514 1159.400, 479.553 1170.875, 478.010 1175 C 475.519 1181.660, 468.609 1197.498, 459.029 1218.500 C 457.273 1222.350, 454.059 1229.970, 451.888 1235.433 C 449.716 1240.896, 445.306 1250.346, 442.088 1256.433 C 438.870 1262.520, 434.780 1271.325, 432.999 1276 C 431.218 1280.675, 426.259 1291.925, 421.979 1301 C 417.700 1310.075, 412.965 1320.650, 411.456 1324.500 C 409.948 1328.350, 405.891 1337.396, 402.441 1344.603 C 398.991 1351.809, 394.545 1361.629, 392.560 1366.424 C 390.575 1371.219, 387.196 1378.632, 385.052 1382.896 C 375.191 1402.508, 360.162 1448.807, 356.450 1471.008 C 352.593 1494.077, 355.645 1542.924, 362.168 1562.500 C 371.272 1589.827, 411.365 1627.335, 443.389 1638.486 C 463.146 1645.366, 488.260 1649.001, 506.186 1647.575 C 510.414 1647.239, 519.446 1646.538, 526.258 1646.019 C 556.056 1643.744, 581.550 1631.441, 605.025 1608.009 C 622.020 1591.045, 637.380 1558.398, 642.904 1527.500 C 645.762 1511.515, 646.562 1463.078, 644.160 1451.500 C 641.914 1440.678, 642.135 1337.301, 644.436 1322 C 645.223 1316.762, 645.885 1304.872, 645.911 1295.500 C 645.944 1283.261, 646.522 1275.139, 647.976 1266.500 C 649.086 1259.900, 649.998 1252.025, 650.003 1249 C 650.008 1245.975, 650.705 1239, 651.552 1233.500 C 652.399 1228, 653.736 1218.550, 654.524 1212.500 C 659.240 1176.293, 662.194 1157.689, 668.017 1127.500 C 669.715 1118.700, 672.212 1105.425, 673.566 1098 C 678.874 1068.886, 680.225 1062.176, 682.524 1053.500 C 683.836 1048.550, 685.875 1039.375, 687.056 1033.110 C 688.236 1026.846, 691.407 1013.578, 694.101 1003.627 C 696.795 993.675, 699 985.039, 699 984.435 C 699 981.822, 715.276 925.353, 719.303 913.995 C 721.739 907.123, 724.675 897.675, 725.826 893 C 726.977 888.325, 730.590 876.400, 733.854 866.500 C 737.117 856.600, 742.144 841.075, 745.024 832 C 747.904 822.925, 753.976 805.600, 758.518 793.500 C 763.060 781.400, 767.718 768.440, 768.871 764.700 C 770.023 760.960, 774.839 748.585, 779.573 737.200 C 789.352 713.682, 795.173 698.746, 798.631 688.295 C 799.942 684.331, 804.661 672.856, 809.118 662.795 C 813.574 652.733, 821.236 634.600, 826.144 622.500 C 831.052 610.400, 837.233 595.550, 839.881 589.500 C 842.528 583.450, 846.441 574.463, 848.575 569.528 C 850.710 564.594, 855.256 555.369, 858.678 549.028 C 862.101 542.688, 866.771 532.775, 869.058 527 C 878.659 502.753, 912.462 435.464, 928.146 409.379 C 944.357 382.417, 946.104 368.442, 933.499 366.552 C 930.960 366.171, 926.097 364.542, 922.692 362.931 C 914.993 359.289, 913.518 359.286, 907.817 362.901 M 1390.951 404.541 C 1385.328 406.274, 1383.764 407.951, 1376.078 420.490 C 1364.222 439.831, 1350.465 482.943, 1348.952 505.500 C 1348.307 515.119, 1347.748 517.556, 1344.499 524.909 C 1339.072 537.189, 1337.162 543.255, 1335.021 555 C 1333.969 560.775, 1331.293 570.557, 1329.074 576.738 C 1320.794 599.808, 1318.941 610.524, 1321.156 622.541 C 1322.262 628.545, 1322.197 629.017, 1319.627 633.656 C 1308.711 653.355, 1303.963 670.997, 1303.251 694.500 C 1302.767 710.500, 1302.767 710.500, 1298.928 717 C 1294.396 724.672, 1289.241 741.907, 1286.061 760.014 C 1284.855 766.881, 1282.090 781.239, 1279.917 791.919 C 1277.743 802.600, 1274.372 821.725, 1272.425 834.419 C 1270.478 847.114, 1268.229 861.775, 1267.428 867 C 1266.627 872.225, 1264.878 882.125, 1263.541 889 C 1259.716 908.674, 1254.276 939.462, 1252.497 951.500 C 1251.603 957.550, 1249.105 972.850, 1246.946 985.500 C 1238.661 1034.039, 1237.213 1044.050, 1236.031 1061 C 1235.551 1067.875, 1234.467 1076.425, 1233.621 1080 C 1232.776 1083.575, 1230.011 1097, 1227.478 1109.834 C 1223.026 1132.385, 1222.170 1139.007, 1219.955 1168 C 1219.388 1175.425, 1218.493 1183.115, 1217.967 1185.089 C 1215.904 1192.823, 1212.005 1213.438, 1211.033 1221.749 C 1210.022 1230.392, 1208.303 1243.012, 1205.480 1262.500 C 1204.684 1268, 1203.782 1275.200, 1203.477 1278.500 C 1203.172 1281.800, 1201.144 1295.975, 1198.970 1310 C 1196.796 1324.025, 1194.300 1340.450, 1193.421 1346.500 C 1192.543 1352.550, 1190.284 1365.375, 1188.401 1375 C 1184.106 1396.955, 1180.323 1419.533, 1179.521 1428 C 1178.798 1435.632, 1175.793 1458.338, 1172.703 1479.500 C 1170.951 1491.502, 1170.512 1499.097, 1170.507 1517.500 C 1170.498 1546.781, 1171.470 1550.713, 1181.459 1561.804 C 1188.790 1569.943, 1189.207 1571.571, 1186.395 1581.042 C 1182.301 1594.827, 1192.605 1613.102, 1218.230 1637.507 C 1236.876 1655.265, 1248.619 1662.634, 1269.057 1669.401 C 1321.200 1686.667, 1377.939 1676.915, 1421.155 1643.259 C 1429.249 1636.955, 1449.890 1610.260, 1455.763 1598.500 C 1459.086 1591.845, 1464.752 1573.079, 1466.483 1562.995 C 1467.379 1557.773, 1468.987 1550.640, 1470.056 1547.145 C 1472.625 1538.747, 1472.509 1532.052, 1469.628 1522.426 C 1468.323 1518.067, 1466.938 1512.025, 1466.550 1509 C 1464.516 1493.167, 1456.364 1459.956, 1448.508 1435.500 C 1444.974 1424.500, 1440.492 1409.875, 1438.546 1403 C 1436.601 1396.125, 1432.727 1383.075, 1429.936 1374 C 1427.146 1364.925, 1423.730 1351.220, 1422.347 1343.543 C 1420.963 1335.867, 1417.441 1319.892, 1414.521 1308.043 C 1408.363 1283.060, 1407.503 1279.148, 1405.940 1269 C 1405.305 1264.875, 1403.475 1254.975, 1401.874 1247 C 1398.819 1231.788, 1396.827 1217.184, 1394.503 1192.973 C 1393.736 1184.983, 1392.679 1176.433, 1392.154 1173.973 C 1391.629 1171.513, 1390.904 1166.800, 1390.542 1163.500 C 1390.180 1160.200, 1389.010 1152.865, 1387.942 1147.199 C 1386.640 1140.291, 1385.999 1132.551, 1385.997 1123.699 C 1385.995 1116.440, 1385.326 1106.675, 1384.510 1102 C 1383.695 1097.325, 1382.598 1085.589, 1382.075 1075.919 C 1381.551 1066.250, 1380.660 1054.550, 1380.095 1049.919 C 1377.773 1030.886, 1376.709 1006.691, 1377.870 999.308 C 1379.490 988.999, 1379.273 981.914, 1377.067 973.167 C 1374.231 961.924, 1373.719 882.855, 1376.420 873.500 C 1379.647 862.329, 1379.940 858.141, 1378.314 846.500 C 1376.589 834.146, 1377.677 803.887, 1380.544 784.500 C 1381.358 779, 1382.208 764.825, 1382.433 753 C 1382.709 738.566, 1383.356 729.200, 1384.404 724.500 C 1385.479 719.679, 1385.971 712.185, 1385.983 700.425 C 1385.995 688.022, 1386.530 680.360, 1387.938 672.425 C 1389.004 666.416, 1390.171 657.675, 1390.532 653 C 1390.893 648.325, 1391.819 640.450, 1392.590 635.500 C 1393.361 630.550, 1393.998 623.125, 1394.006 619 C 1394.020 611.671, 1397.603 585.955, 1400.414 573 C 1402.557 563.128, 1404.345 545.654, 1403.613 541.749 C 1402.469 535.655, 1400.243 534.578, 1387.342 533.881 C 1374.060 533.162, 1366.370 530.156, 1362.278 524.084 C 1357.609 517.157, 1359.719 514.399, 1375.470 506.843 C 1385.016 502.263, 1387.506 501.896, 1398.730 503.412 C 1409.496 504.867, 1411.662 500.800, 1418.387 466.500 C 1430.873 402.825, 1430.892 402.947, 1408.327 403.070 C 1400.347 403.113, 1393.781 403.669, 1390.951 404.541" stroke="none" fill="#27496d" fill-rule="evenodd"/>
  <path d="M 874 227.033 C 867.675 228.089, 855.300 230.116, 846.500 231.536 C 779.385 242.372, 702.803 263.093, 652.500 284.028 C 647 286.317, 634.625 291.247, 625 294.983 C 585.206 310.432, 536.560 334.355, 506 353.504 C 504.075 354.711, 496.010 359.161, 488.079 363.394 C 464.118 376.181, 416.323 409.201, 381.500 437.026 C 374.900 442.299, 364.775 450.392, 359 455.008 C 353.225 459.625, 339.050 472.656, 327.500 483.965 C 315.950 495.274, 303.350 507.471, 299.500 511.070 C 290.812 519.190, 263.264 548.849, 254.797 559.198 C 251.334 563.431, 244.628 571.531, 239.896 577.198 C 212.605 609.875, 177.847 658.746, 158.602 691.500 C 155.370 697, 149.887 706.290, 146.418 712.145 C 137.420 727.329, 100.068 802.387, 93.032 819.422 C 83.818 841.733, 70.617 877.169, 66.182 891.500 C 61.307 907.253, 44.034 968.611, 40.564 982.500 C 33.823 1009.485, 22.215 1075.690, 21.076 1093.645 C 20.002 1110.590, 15.257 1117, 3.788 1117 C 0 1117, 0 1117, 0 1185.500 C 0 1254, 0 1254, 3.351 1254 C 15.169 1254, 21.003 1261.171, 20.998 1275.693 C 20.997 1278.887, 21.668 1285.325, 22.488 1290 C 23.309 1294.675, 25.549 1307.950, 27.465 1319.500 C 35.315 1366.808, 44.091 1404.308, 57.188 1446.500 C 59.407 1453.650, 62.494 1463.775, 64.047 1469 C 71.157 1492.919, 87.613 1536.583, 96.868 1556.088 C 99.631 1561.911, 103.249 1570.093, 104.909 1574.270 C 124.593 1623.824, 193.115 1736.085, 229.814 1778.906 C 233.491 1783.196, 240.444 1791.385, 245.263 1797.103 C 250.083 1802.822, 256.383 1810.235, 259.263 1813.577 C 262.144 1816.920, 267.061 1822.770, 270.192 1826.577 C 278.740 1836.975, 338.122 1895.563, 349 1904.332 C 354.225 1908.544, 363.675 1916.306, 370 1921.581 C 403.454 1949.481, 421.152 1962.806, 452.833 1983.945 C 488.536 2007.768, 522.851 2028.796, 541.656 2038.374 C 548.720 2041.972, 558.775 2047.463, 564 2050.577 C 577.431 2058.580, 594.824 2067, 597.925 2067 C 605.120 2067, 608 2061.111, 608 2046.398 C 608 2025.742, 607.199 2024.804, 576.109 2009.035 C 530.499 1985.900, 467.184 1946.443, 431 1918.605 C 424.125 1913.315, 411.300 1903.498, 402.500 1896.788 C 393.700 1890.078, 382 1880.292, 376.500 1875.040 C 371 1869.789, 361.775 1861.452, 356 1856.515 C 340.138 1842.952, 316.960 1819.946, 305.620 1806.509 C 300.054 1799.914, 292.783 1791.589, 289.462 1788.009 C 261.366 1757.720, 220.076 1700.143, 198.021 1660.500 C 194.349 1653.900, 188.583 1643.727, 185.207 1637.892 C 149.260 1575.768, 108.870 1473.540, 97.538 1416 C 96.076 1408.575, 94.009 1399.242, 92.946 1395.261 C 89.604 1382.750, 86.270 1366.183, 83.033 1346 C 81.312 1335.275, 79.025 1321.100, 77.949 1314.500 C 76.873 1307.900, 75.993 1298, 75.993 1292.500 C 75.992 1287, 75.073 1276.948, 73.950 1270.162 C 71.183 1253.436, 71.484 1107.752, 74.311 1095.500 C 75.200 1091.650, 75.942 1084.225, 75.960 1079 C 75.978 1073.775, 76.862 1064.100, 77.925 1057.500 C 78.987 1050.900, 81.071 1037.400, 82.557 1027.500 C 93.145 956.949, 118.184 868.444, 142.600 815.270 C 144.562 810.997, 147.517 804.125, 149.166 800 C 154.042 787.799, 170.999 753.570, 179.633 738.499 C 184.044 730.799, 189.837 720.450, 192.507 715.500 C 198.820 703.796, 200.664 700.888, 223.568 666.500 C 242.037 638.770, 261.699 613.084, 293.227 575.500 C 305.155 561.281, 353.430 512.989, 367 501.700 C 424.661 453.735, 475.675 417.947, 521.887 393.040 C 528.824 389.301, 538.550 383.884, 543.500 381.002 C 556.319 373.539, 586.150 358.742, 599.842 353.055 C 606.254 350.392, 614.200 346.989, 617.500 345.493 C 673.079 320.291, 766.424 293.841, 840 282.447 C 864.594 278.638, 866.951 277.903, 872.703 272.238 C 878.249 266.776, 896.687 241.198, 898.193 236.875 C 901.637 226.997, 893.657 223.751, 874 227.033 M 1513.672 388.043 C 1510.447 390.580, 1509.294 393.057, 1507.409 401.500 C 1503.848 417.458, 1506.413 423.690, 1520.500 433.291 C 1530.942 440.408, 1573.769 472.825, 1583.323 480.844 C 1588.370 485.080, 1594.525 490.098, 1597 491.995 C 1599.475 493.892, 1606.900 500.646, 1613.500 507.004 C 1620.100 513.362, 1628.875 521.202, 1633 524.426 C 1643.658 532.758, 1651.968 540.993, 1661.331 552.500 C 1665.806 558, 1674.895 568.125, 1681.527 575 C 1733.678 629.056, 1797.150 726.652, 1829.484 802.500 C 1832.063 808.550, 1836.547 818.900, 1839.449 825.500 C 1855.965 863.060, 1880.613 946.101, 1889.909 995.500 C 1896.287 1029.393, 1900.246 1053.879, 1901.065 1064.500 C 1901.574 1071.100, 1902.475 1078.300, 1903.067 1080.500 C 1903.659 1082.700, 1904.527 1098.225, 1904.997 1115 C 1905.467 1131.775, 1906.421 1149.775, 1907.117 1155 C 1909.050 1169.514, 1908.814 1207.336, 1906.716 1219 C 1905.444 1226.075, 1905.007 1234.149, 1905.004 1250.629 C 1905.001 1268.229, 1904.593 1275.085, 1903.010 1284.129 C 1901.916 1290.383, 1901.016 1298.254, 1901.010 1301.620 C 1901.005 1304.987, 1900.139 1312.862, 1899.086 1319.120 C 1898.033 1325.379, 1896.864 1333.200, 1896.489 1336.500 C 1891.283 1382.310, 1861.478 1490.241, 1838.496 1546.509 C 1828.376 1571.287, 1789.150 1650.427, 1778.032 1668.500 C 1761.519 1695.340, 1724.406 1748.698, 1711.955 1763.500 C 1708.254 1767.900, 1702.812 1774.498, 1699.863 1778.161 C 1680.967 1801.632, 1669.657 1813.973, 1641.332 1842.027 C 1608.555 1874.491, 1603.474 1878.983, 1565.161 1909.374 C 1510.252 1952.930, 1431.983 2000.823, 1379.363 2023.064 C 1373.938 2025.357, 1365.900 2028.798, 1361.500 2030.710 C 1294.132 2059.985, 1222.585 2080.989, 1158 2090.452 C 1122.366 2095.674, 1120.509 2096.026, 1115.302 2098.564 C 1109.144 2101.564, 1106.673 2105.152, 1105.019 2113.500 C 1104.365 2116.800, 1103.141 2122.555, 1102.298 2126.289 C 1097.546 2147.341, 1102.549 2150.635, 1131.500 2145.516 C 1154.022 2141.534, 1224.393 2126.315, 1238.185 2122.444 C 1256.422 2117.325, 1332.043 2091.491, 1343.500 2086.467 C 1350.100 2083.572, 1364.275 2077.499, 1375 2072.971 C 1395.329 2064.389, 1433.311 2045.846, 1444.192 2039.191 C 1447.662 2037.070, 1455 2032.935, 1460.500 2030.004 C 1466 2027.072, 1477.700 2020.088, 1486.500 2014.484 C 1495.300 2008.880, 1508.800 2000.317, 1516.500 1995.456 C 1535.596 1983.399, 1564.391 1963.266, 1576.500 1953.505 C 1582 1949.072, 1592.722 1940.556, 1600.328 1934.583 C 1607.933 1928.609, 1618.508 1919.610, 1623.828 1914.585 C 1629.147 1909.561, 1636.875 1902.782, 1641 1899.522 C 1651.780 1891, 1683.768 1859.228, 1693.341 1847.532 C 1697.828 1842.050, 1705.100 1833.713, 1709.500 1829.007 C 1723.761 1813.753, 1756.260 1772.981, 1770.732 1752.187 C 1774.440 1746.859, 1781.150 1737.457, 1785.642 1731.293 C 1790.135 1725.129, 1797.076 1714.779, 1801.067 1708.293 C 1805.058 1701.807, 1811.356 1691.775, 1815.062 1686 C 1877.358 1588.920, 1935.313 1428.076, 1951.083 1308.500 C 1951.663 1304.100, 1952.994 1294.200, 1954.040 1286.500 C 1955.086 1278.800, 1956.155 1267.100, 1956.417 1260.500 C 1956.679 1253.900, 1957.592 1244.973, 1958.446 1240.662 C 1961.030 1227.629, 1960.697 1141.727, 1958 1125.500 C 1956.903 1118.900, 1956.003 1109.225, 1956 1104 C 1955.997 1098.775, 1955.097 1089.100, 1954 1082.500 C 1952.903 1075.900, 1952.004 1069.096, 1952.003 1067.380 C 1952 1064.061, 1950.067 1052.272, 1944.467 1021.409 C 1934.046 963.977, 1915.071 896.563, 1895.234 846.500 C 1893.055 841, 1890.481 834.025, 1889.514 831 C 1888.547 827.975, 1884.612 818.750, 1880.769 810.500 C 1876.925 802.250, 1871.523 790.325, 1868.764 784 C 1863.192 771.228, 1848.106 740.726, 1844.585 735.111 C 1843.339 733.125, 1838.810 725.200, 1834.521 717.500 C 1830.231 709.800, 1823.105 697.875, 1818.685 691 C 1814.265 684.125, 1806.052 671.223, 1800.433 662.329 C 1791.825 648.702, 1780.981 633.423, 1757.975 602.500 C 1755.929 599.750, 1750.035 592.278, 1744.877 585.897 C 1739.720 579.515, 1732.029 569.998, 1727.787 564.749 C 1694.437 523.481, 1633.672 466.407, 1580.500 426.410 C 1531.785 389.766, 1520.048 383.028, 1513.672 388.043 M 1123.679 536.250 C 1122.347 538.038, 1118.431 544.584, 1114.977 550.798 C 1109.133 561.311, 1103.771 573.595, 1079.531 632 C 1074.395 644.375, 1066.960 662.150, 1063.008 671.500 C 1055.216 689.938, 1033.761 745.093, 1024.692 770 C 1021.588 778.525, 1016.071 793.600, 1012.431 803.500 C 1008.792 813.400, 1003.426 828.250, 1000.507 836.500 C 997.588 844.750, 993.310 856.450, 991.001 862.500 C 988.691 868.550, 984.191 880.925, 980.999 890 C 977.808 899.075, 971.540 916.816, 967.071 929.423 C 962.601 942.031, 956.908 959.356, 954.418 967.923 C 951.929 976.491, 945.677 996.325, 940.526 1012 C 930.693 1041.920, 920.542 1074.546, 913.424 1099.112 C 911.095 1107.149, 907.598 1118.647, 905.653 1124.664 C 903.708 1130.681, 899.591 1145.706, 896.505 1158.052 C 893.419 1170.398, 889.598 1184.775, 888.015 1190 C 884.387 1201.967, 872.143 1245.701, 861.837 1283.500 C 853.698 1313.355, 831.961 1399.536, 820.977 1445.500 C 817.560 1459.800, 811.246 1485.900, 806.946 1503.500 C 802.645 1521.100, 798.386 1539.325, 797.480 1544 C 796.574 1548.675, 794.246 1558.800, 792.308 1566.500 C 788.604 1581.212, 783.190 1606.582, 767.553 1682.500 C 762.342 1707.800, 755.796 1738.400, 753.006 1750.500 C 750.217 1762.600, 745.701 1782.400, 742.971 1794.500 C 740.241 1806.600, 736.877 1820.550, 735.495 1825.500 C 724.574 1864.608, 703.242 1957.763, 698.512 1987 C 692.965 2021.288, 692.718 2023.737, 693.287 2038.762 C 694.939 2082.404, 718.870 2128.795, 754 2156.457 C 779.432 2176.483, 807.182 2190.012, 833.025 2194.985 C 843.231 2196.949, 848.392 2202.006, 849.624 2211.250 C 850.258 2216, 850.258 2216, 860.900 2216 C 871.542 2216, 871.542 2216, 872.724 2209.750 C 874.188 2202.001, 878.188 2197.815, 886.184 2195.664 C 889.108 2194.878, 896.900 2192.812, 903.500 2191.074 C 953.332 2177.952, 998.886 2135.161, 1014.526 2086.784 C 1025.063 2054.188, 1024.277 2038.157, 1009.117 1976.500 C 1003.860 1955.119, 991.208 1889.681, 986.496 1859.500 C 985.036 1850.150, 982.977 1837.379, 981.921 1831.120 C 980.864 1824.862, 980 1817.814, 980 1815.458 C 980 1813.103, 979.309 1807.649, 978.465 1803.338 C 977.621 1799.027, 976.509 1788.525, 975.996 1780 C 975.482 1771.475, 974.388 1760.900, 973.566 1756.500 C 972.665 1751.685, 972.052 1742.330, 972.025 1733 C 971.993 1722.183, 971.378 1714.064, 969.990 1706.129 C 968.274 1696.322, 968 1690.224, 968 1661.790 C 968 1633.079, 967.735 1627.288, 965.949 1616.939 C 963.411 1602.235, 963.410 1471.288, 965.948 1463.500 C 966.885 1460.624, 967.463 1447.140, 968.006 1415.500 C 968.509 1386.142, 969.161 1370.169, 969.965 1367.500 C 970.650 1365.226, 971.536 1352.278, 972.019 1337.500 C 972.485 1323.200, 973.373 1309.700, 973.990 1307.500 C 974.608 1305.300, 975.507 1294.725, 975.989 1284 C 976.471 1273.275, 977.570 1260.973, 978.432 1256.662 C 979.295 1252.351, 980 1245.318, 980 1241.033 C 980 1236.748, 980.895 1228.125, 981.990 1221.871 C 983.084 1215.617, 984.017 1207.575, 984.063 1204 C 984.108 1200.425, 984.501 1195.250, 984.935 1192.500 C 985.369 1189.750, 986.266 1183.450, 986.929 1178.500 C 987.592 1173.550, 988.979 1163.200, 990.012 1155.500 C 991.044 1147.800, 992.360 1137.225, 992.936 1132 C 993.511 1126.775, 994.890 1116.650, 996 1109.500 C 997.974 1096.782, 1000.246 1081.573, 1003.468 1059.500 C 1008.685 1023.769, 1035.526 890.606, 1045.473 851.109 C 1047.388 843.502, 1050.309 830.930, 1051.963 823.172 C 1055.708 805.607, 1068.728 753.494, 1073.943 735.192 C 1076.089 727.661, 1080.410 712.725, 1083.544 702 C 1086.679 691.275, 1091.829 673.050, 1094.989 661.500 C 1098.149 649.950, 1102.622 634.200, 1104.928 626.500 C 1113.771 596.984, 1116.108 588.931, 1121.036 571 C 1129.047 541.852, 1130.565 533, 1127.551 533 C 1126.754 533, 1125.012 534.462, 1123.679 536.250" stroke="none" fill="#ffffff" fill-rule="evenodd"/>
</svg>
