<svg xmlns="http://www.w3.org/2000/svg" width="2048" height="2216" viewBox="0 0 2048 2216" version="1.1">
	<path d="M 874 227.033 C 867.675 228.089, 855.300 230.116, 846.500 231.536 C 779.385 242.372, 702.803 263.093, 652.500 284.028 C 647 286.317, 634.625 291.247, 625 294.983 C 585.206 310.432, 536.560 334.355, 506 353.504 C 504.075 354.711, 496.010 359.161, 488.079 363.394 C 464.118 376.181, 416.323 409.201, 381.500 437.026 C 374.900 442.299, 364.775 450.392, 359 455.008 C 353.225 459.625, 339.050 472.656, 327.500 483.965 C 315.950 495.274, 303.350 507.471, 299.500 511.070 C 290.812 519.190, 263.264 548.849, 254.797 559.198 C 251.334 563.431, 244.628 571.531, 239.896 577.198 C 212.605 609.875, 177.847 658.746, 158.602 691.500 C 155.370 697, 149.887 706.290, 146.418 712.145 C 137.420 727.329, 100.068 802.387, 93.032 819.422 C 83.818 841.733, 70.617 877.169, 66.182 891.500 C 61.307 907.253, 44.034 968.611, 40.564 982.500 C 33.823 1009.485, 22.215 1075.690, 21.076 1093.645 C 20.002 1110.590, 15.257 1117, 3.788 1117 C 0 1117, 0 1117, 0 1185.500 C 0 1254, 0 1254, 3.351 1254 C 15.169 1254, 21.003 1261.171, 20.998 1275.693 C 20.997 1278.887, 21.668 1285.325, 22.488 1290 C 23.309 1294.675, 25.549 1307.950, 27.465 1319.500 C 35.315 1366.808, 44.091 1404.308, 57.188 1446.500 C 59.407 1453.650, 62.494 1463.775, 64.047 1469 C 71.157 1492.919, 87.613 1536.583, 96.868 1556.088 C 99.631 1561.911, 103.249 1570.093, 104.909 1574.270 C 124.593 1623.824, 193.115 1736.085, 229.814 1778.906 C 233.491 1783.196, 240.444 1791.385, 245.263 1797.103 C 250.083 1802.822, 256.383 1810.235, 259.263 1813.577 C 262.144 1816.920, 267.061 1822.770, 270.192 1826.577 C 278.740 1836.975, 338.122 1895.563, 349 1904.332 C 354.225 1908.544, 363.675 1916.306, 370 1921.581 C 403.454 1949.481, 421.152 1962.806, 452.833 1983.945 C 488.536 2007.768, 522.851 2028.796, 541.656 2038.374 C 548.720 2041.972, 558.775 2047.463, 564 2050.577 C 577.431 2058.580, 594.824 2067, 597.925 2067 C 605.120 2067, 608 2061.111, 608 2046.398 C 608 2025.742, 607.199 2024.804, 576.109 2009.035 C 530.499 1985.900, 467.184 1946.443, 431 1918.605 C 424.125 1913.315, 411.300 1903.498, 402.500 1896.788 C 393.700 1890.078, 382 1880.292, 376.500 1875.040 C 371 1869.789, 361.775 1861.452, 356 1856.515 C 340.138 1842.952, 316.960 1819.946, 305.620 1806.509 C 300.054 1799.914, 292.783 1791.589, 289.462 1788.009 C 261.366 1757.720, 220.076 1700.143, 198.021 1660.500 C 194.349 1653.900, 188.583 1643.727, 185.207 1637.892 C 149.260 1575.768, 108.870 1473.540, 97.538 1416 C 96.076 1408.575, 94.009 1399.242, 92.946 1395.261 C 89.604 1382.750, 86.270 1366.183, 83.033 1346 C 81.312 1335.275, 79.025 1321.100, 77.949 1314.500 C 76.873 1307.900, 75.993 1298, 75.993 1292.500 C 75.992 1287, 75.073 1276.948, 73.950 1270.162 C 71.183 1253.436, 71.484 1107.752, 74.311 1095.500 C 75.200 1091.650, 75.942 1084.225, 75.960 1079 C 75.978 1073.775, 76.862 1064.100, 77.925 1057.500 C 78.987 1050.900, 81.071 1037.400, 82.557 1027.500 C 93.145 956.949, 118.184 868.444, 142.600 815.270 C 144.562 810.997, 147.517 804.125, 149.166 800 C 154.042 787.799, 170.999 753.570, 179.633 738.499 C 184.044 730.799, 189.837 720.450, 192.507 715.500 C 198.820 703.796, 200.664 700.888, 223.568 666.500 C 242.037 638.770, 261.699 613.084, 293.227 575.500 C 305.155 561.281, 353.430 512.989, 367 501.700 C 424.661 453.735, 475.675 417.947, 521.887 393.040 C 528.824 389.301, 538.550 383.884, 543.500 381.002 C 556.319 373.539, 586.150 358.742, 599.842 353.055 C 606.254 350.392, 614.200 346.989, 617.500 345.493 C 673.079 320.291, 766.424 293.841, 840 282.447 C 864.594 278.638, 866.951 277.903, 872.703 272.238 C 878.249 266.776, 896.687 241.198, 898.193 236.875 C 901.637 226.997, 893.657 223.751, 874 227.033 M 1513.672 388.043 C 1510.447 390.580, 1509.294 393.057, 1507.409 401.500 C 1503.848 417.458, 1506.413 423.690, 1520.500 433.291 C 1530.942 440.408, 1573.769 472.825, 1583.323 480.844 C 1588.370 485.080, 1594.525 490.098, 1597 491.995 C 1599.475 493.892, 1606.900 500.646, 1613.500 507.004 C 1620.100 513.362, 1628.875 521.202, 1633 524.426 C 1643.658 532.758, 1651.968 540.993, 1661.331 552.500 C 1665.806 558, 1674.895 568.125, 1681.527 575 C 1733.678 629.056, 1797.150 726.652, 1829.484 802.500 C 1832.063 808.550, 1836.547 818.900, 1839.449 825.500 C 1855.965 863.060, 1880.613 946.101, 1889.909 995.500 C 1896.287 1029.393, 1900.246 1053.879, 1901.065 1064.500 C 1901.574 1071.100, 1902.475 1078.300, 1903.067 1080.500 C 1903.659 1082.700, 1904.527 1098.225, 1904.997 1115 C 1905.467 1131.775, 1906.421 1149.775, 1907.117 1155 C 1909.050 1169.514, 1908.814 1207.336, 1906.716 1219 C 1905.444 1226.075, 1905.007 1234.149, 1905.004 1250.629 C 1905.001 1268.229, 1904.593 1275.085, 1903.010 1284.129 C 1901.916 1290.383, 1901.016 1298.254, 1901.010 1301.620 C 1901.005 1304.987, 1900.139 1312.862, 1899.086 1319.120 C 1898.033 1325.379, 1896.864 1333.200, 1896.489 1336.500 C 1891.283 1382.310, 1861.478 1490.241, 1838.496 1546.509 C 1828.376 1571.287, 1789.150 1650.427, 1778.032 1668.500 C 1761.519 1695.340, 1724.406 1748.698, 1711.955 1763.500 C 1708.254 1767.900, 1702.812 1774.498, 1699.863 1778.161 C 1680.967 1801.632, 1669.657 1813.973, 1641.332 1842.027 C 1608.555 1874.491, 1603.474 1878.983, 1565.161 1909.374 C 1510.252 1952.930, 1431.983 2000.823, 1379.363 2023.064 C 1373.938 2025.357, 1365.900 2028.798, 1361.500 2030.710 C 1294.132 2059.985, 1222.585 2080.989, 1158 2090.452 C 1122.366 2095.674, 1120.509 2096.026, 1115.302 2098.564 C 1109.144 2101.564, 1106.673 2105.152, 1105.019 2113.500 C 1104.365 2116.800, 1103.141 2122.555, 1102.298 2126.289 C 1097.546 2147.341, 1102.549 2150.635, 1131.500 2145.516 C 1154.022 2141.534, 1224.393 2126.315, 1238.185 2122.444 C 1256.422 2117.325, 1332.043 2091.491, 1343.500 2086.467 C 1350.100 2083.572, 1364.275 2077.499, 1375 2072.971 C 1395.329 2064.389, 1433.311 2045.846, 1444.192 2039.191 C 1447.662 2037.070, 1455 2032.935, 1460.500 2030.004 C 1466 2027.072, 1477.700 2020.088, 1486.500 2014.484 C 1495.300 2008.880, 1508.800 2000.317, 1516.500 1995.456 C 1535.596 1983.399, 1564.391 1963.266, 1576.500 1953.505 C 1582 1949.072, 1592.722 1940.556, 1600.328 1934.583 C 1607.933 1928.609, 1618.508 1919.610, 1623.828 1914.585 C 1629.147 1909.561, 1636.875 1902.782, 1641 1899.522 C 1651.780 1891, 1683.768 1859.228, 1693.341 1847.532 C 1697.828 1842.050, 1705.100 1833.713, 1709.500 1829.007 C 1723.761 1813.753, 1756.260 1772.981, 1770.732 1752.187 C 1774.440 1746.859, 1781.150 1737.457, 1785.642 1731.293 C 1790.135 1725.129, 1797.076 1714.779, 1801.067 1708.293 C 1805.058 1701.807, 1811.356 1691.775, 1815.062 1686 C 1877.358 1588.920, 1935.313 1428.076, 1951.083 1308.500 C 1951.663 1304.100, 1952.994 1294.200, 1954.040 1286.500 C 1955.086 1278.800, 1956.155 1267.100, 1956.417 1260.500 C 1956.679 1253.900, 1957.592 1244.973, 1958.446 1240.662 C 1961.030 1227.629, 1960.697 1141.727, 1958 1125.500 C 1956.903 1118.900, 1956.003 1109.225, 1956 1104 C 1955.997 1098.775, 1955.097 1089.100, 1954 1082.500 C 1952.903 1075.900, 1952.004 1069.096, 1952.003 1067.380 C 1952 1064.061, 1950.067 1052.272, 1944.467 1021.409 C 1934.046 963.977, 1915.071 896.563, 1895.234 846.500 C 1893.055 841, 1890.481 834.025, 1889.514 831 C 1888.547 827.975, 1884.612 818.750, 1880.769 810.500 C 1876.925 802.250, 1871.523 790.325, 1868.764 784 C 1863.192 771.228, 1848.106 740.726, 1844.585 735.111 C 1843.339 733.125, 1838.810 725.200, 1834.521 717.500 C 1830.231 709.800, 1823.105 697.875, 1818.685 691 C 1814.265 684.125, 1806.052 671.223, 1800.433 662.329 C 1791.825 648.702, 1780.981 633.423, 1757.975 602.500 C 1755.929 599.750, 1750.035 592.278, 1744.877 585.897 C 1739.720 579.515, 1732.029 569.998, 1727.787 564.749 C 1694.437 523.481, 1633.672 466.407, 1580.500 426.410 C 1531.785 389.766, 1520.048 383.028, 1513.672 388.043 M 1123.679 536.250 C 1122.347 538.038, 1118.431 544.584, 1114.977 550.798 C 1109.133 561.311, 1103.771 573.595, 1079.531 632 C 1074.395 644.375, 1066.960 662.150, 1063.008 671.500 C 1055.216 689.938, 1033.761 745.093, 1024.692 770 C 1021.588 778.525, 1016.071 793.600, 1012.431 803.500 C 1008.792 813.400, 1003.426 828.250, 1000.507 836.500 C 997.588 844.750, 993.310 856.450, 991.001 862.500 C 988.691 868.550, 984.191 880.925, 980.999 890 C 977.808 899.075, 971.540 916.816, 967.071 929.423 C 962.601 942.031, 956.908 959.356, 954.418 967.923 C 951.929 976.491, 945.677 996.325, 940.526 1012 C 930.693 1041.920, 920.542 1074.546, 913.424 1099.112 C 911.095 1107.149, 907.598 1118.647, 905.653 1124.664 C 903.708 1130.681, 899.591 1145.706, 896.505 1158.052 C 893.419 1170.398, 889.598 1184.775, 888.015 1190 C 884.387 1201.967, 872.143 1245.701, 861.837 1283.500 C 853.698 1313.355, 831.961 1399.536, 820.977 1445.500 C 817.560 1459.800, 811.246 1485.900, 806.946 1503.500 C 802.645 1521.100, 798.386 1539.325, 797.480 1544 C 796.574 1548.675, 794.246 1558.800, 792.308 1566.500 C 788.604 1581.212, 783.190 1606.582, 767.553 1682.500 C 762.342 1707.800, 755.796 1738.400, 753.006 1750.500 C 750.217 1762.600, 745.701 1782.400, 742.971 1794.500 C 740.241 1806.600, 736.877 1820.550, 735.495 1825.500 C 724.574 1864.608, 703.242 1957.763, 698.512 1987 C 692.965 2021.288, 692.718 2023.737, 693.287 2038.762 C 694.939 2082.404, 718.870 2128.795, 754 2156.457 C 779.432 2176.483, 807.182 2190.012, 833.025 2194.985 C 843.231 2196.949, 848.392 2202.006, 849.624 2211.250 C 850.258 2216, 850.258 2216, 860.900 2216 C 871.542 2216, 871.542 2216, 872.724 2209.750 C 874.188 2202.001, 878.188 2197.815, 886.184 2195.664 C 889.108 2194.878, 896.900 2192.812, 903.500 2191.074 C 953.332 2177.952, 998.886 2135.161, 1014.526 2086.784 C 1025.063 2054.188, 1024.277 2038.157, 1009.117 1976.500 C 1003.860 1955.119, 991.208 1889.681, 986.496 1859.500 C 985.036 1850.150, 982.977 1837.379, 981.921 1831.120 C 980.864 1824.862, 980 1817.814, 980 1815.458 C 980 1813.103, 979.309 1807.649, 978.465 1803.338 C 977.621 1799.027, 976.509 1788.525, 975.996 1780 C 975.482 1771.475, 974.388 1760.900, 973.566 1756.500 C 972.665 1751.685, 972.052 1742.330, 972.025 1733 C 971.993 1722.183, 971.378 1714.064, 969.990 1706.129 C 968.274 1696.322, 968 1690.224, 968 1661.790 C 968 1633.079, 967.735 1627.288, 965.949 1616.939 C 963.411 1602.235, 963.410 1471.288, 965.948 1463.500 C 966.885 1460.624, 967.463 1447.140, 968.006 1415.500 C 968.509 1386.142, 969.161 1370.169, 969.965 1367.500 C 970.650 1365.226, 971.536 1352.278, 972.019 1337.500 C 972.485 1323.200, 973.373 1309.700, 973.990 1307.500 C 974.608 1305.300, 975.507 1294.725, 975.989 1284 C 976.471 1273.275, 977.570 1260.973, 978.432 1256.662 C 979.295 1252.351, 980 1245.318, 980 1241.033 C 980 1236.748, 980.895 1228.125, 981.990 1221.871 C 983.084 1215.617, 984.017 1207.575, 984.063 1204 C 984.108 1200.425, 984.501 1195.250, 984.935 1192.500 C 985.369 1189.750, 986.266 1183.450, 986.929 1178.500 C 987.592 1173.550, 988.979 1163.200, 990.012 1155.500 C 991.044 1147.800, 992.360 1137.225, 992.936 1132 C 993.511 1126.775, 994.890 1116.650, 996 1109.500 C 997.974 1096.782, 1000.246 1081.573, 1003.468 1059.500 C 1008.685 1023.769, 1035.526 890.606, 1045.473 851.109 C 1047.388 843.502, 1050.309 830.930, 1051.963 823.172 C 1055.708 805.607, 1068.728 753.494, 1073.943 735.192 C 1076.089 727.661, 1080.410 712.725, 1083.544 702 C 1086.679 691.275, 1091.829 673.050, 1094.989 661.500 C 1098.149 649.950, 1102.622 634.200, 1104.928 626.500 C 1113.771 596.984, 1116.108 588.931, 1121.036 571 C 1129.047 541.852, 1130.565 533, 1127.551 533 C 1126.754 533, 1125.012 534.462, 1123.679 536.250" stroke="none" fill="#ffffff" fill-rule="evenodd"/>
</svg>