<svg xmlns="http://www.w3.org/2000/svg" width="2048" height="2216" viewBox="0 0 2048 2216" version="1.1">
	<path d="M 1496.848 83.025 C 1492.683 85.457, 1486.793 100.257, 1485.516 111.500 C 1484.939 116.574, 1484.154 118.348, 1480.429 123 C 1469.396 136.778, 1467.022 144.584, 1472.143 150.245 C 1480.965 159.999, 1490.705 149.010, 1491.772 128.098 C 1492.233 119.060, 1492.752 116.646, 1495.546 110.559 C 1503.154 93.979, 1503.866 78.928, 1496.848 83.025 M 1453.587 183.507 C 1446.976 189.634, 1444.304 203.496, 1448.809 208.295 C 1451.691 211.365, 1461.222 214.246, 1464.444 213.021 C 1471.310 210.411, 1477.192 193.905, 1473.861 186.595 C 1471.234 180.828, 1458.561 178.898, 1453.587 183.507 M 1039.193 187.023 C 1033.285 190.626, 1031.825 198.052, 1036.598 200.227 C 1040.855 202.166, 1047.043 196.199, 1047.220 189.982 C 1047.364 184.890, 1044.453 183.817, 1039.193 187.023 M 1017.202 215.049 C 1010.814 217.612, 994.626 236.113, 977.089 260.892 C 968.722 272.715, 967.537 275.004, 966.051 282.215 C 964.795 288.306, 963.291 290.041, 954.965 295 C 950.181 297.849, 945.914 303.113, 933.052 322.033 C 919.959 341.294, 919.531 344.601, 929.199 351.819 C 932.115 353.996, 936.051 357.402, 937.946 359.389 C 943.450 365.157, 949.794 363.532, 955.767 354.826 C 960.995 347.205, 978.779 315.344, 981.745 308.286 C 983.322 304.533, 986.432 298.771, 988.656 295.481 C 996.631 283.688, 1020.989 244.024, 1024.564 237.010 C 1032.578 221.284, 1028.913 210.349, 1017.202 215.049 M 1429.799 251.690 C 1425.710 254.285, 1422.670 260.845, 1417.065 279.168 C 1414.261 288.336, 1408.646 304.776, 1404.587 315.701 C 1393.295 346.094, 1392.410 350.024, 1395.507 356.013 C 1396.917 358.740, 1404.112 362, 1408.719 362 C 1409.464 362, 1414.316 363.443, 1419.500 365.206 C 1430.330 368.890, 1433.181 368.567, 1436.252 363.308 C 1438.588 359.308, 1443.879 338.055, 1448.528 314 C 1450.495 303.825, 1453.399 289.875, 1454.982 283 C 1461.058 256.618, 1460.458 254.933, 1444 252.144 C 1440.425 251.538, 1436.375 250.802, 1435 250.509 C 1433.525 250.195, 1431.393 250.678, 1429.799 251.690 M 907.817 362.901 C 901.826 366.701, 895.069 376.331, 873.020 412.500 C 869.332 418.550, 862.698 428.900, 858.277 435.500 C 853.857 442.100, 846.751 453.575, 842.486 461 C 838.221 468.425, 832.386 477.875, 829.519 482 C 826.652 486.125, 821.001 495.350, 816.961 502.500 C 812.921 509.650, 804.907 522.925, 799.152 532 C 793.397 541.075, 784.946 555.368, 780.373 563.763 C 775.800 572.158, 768.473 585.048, 764.091 592.408 C 759.709 599.768, 753.796 610.449, 750.952 616.145 C 748.107 621.840, 743.367 630.325, 740.418 635 C 731.236 649.559, 717.307 674.772, 708.653 692.500 C 704.089 701.850, 696.584 715.567, 691.976 722.983 C 687.367 730.399, 681.030 742.138, 677.894 749.071 C 670.153 766.177, 657.452 790.492, 647.124 807.972 C 642.422 815.932, 635.938 828.532, 632.716 835.972 C 625.685 852.207, 601.215 902.864, 588.986 926.500 C 584.148 935.850, 577.627 950.025, 574.494 958 C 571.361 965.975, 565.941 977.906, 562.450 984.512 C 558.958 991.119, 553.826 1002.269, 551.044 1009.291 C 548.263 1016.312, 543.263 1027.490, 539.935 1034.130 C 533.144 1047.677, 522.826 1070.665, 519.795 1079 C 518.696 1082.025, 515.614 1089.450, 512.949 1095.500 C 510.283 1101.550, 505.661 1112.125, 502.678 1119 C 499.695 1125.875, 493.556 1139.600, 489.035 1149.500 C 484.514 1159.400, 479.553 1170.875, 478.010 1175 C 475.519 1181.660, 468.609 1197.498, 459.029 1218.500 C 457.273 1222.350, 454.059 1229.970, 451.888 1235.433 C 449.716 1240.896, 445.306 1250.346, 442.088 1256.433 C 438.870 1262.520, 434.780 1271.325, 432.999 1276 C 431.218 1280.675, 426.259 1291.925, 421.979 1301 C 417.700 1310.075, 412.965 1320.650, 411.456 1324.500 C 409.948 1328.350, 405.891 1337.396, 402.441 1344.603 C 398.991 1351.809, 394.545 1361.629, 392.560 1366.424 C 390.575 1371.219, 387.196 1378.632, 385.052 1382.896 C 375.191 1402.508, 360.162 1448.807, 356.450 1471.008 C 352.593 1494.077, 355.645 1542.924, 362.168 1562.500 C 371.272 1589.827, 411.365 1627.335, 443.389 1638.486 C 463.146 1645.366, 488.260 1649.001, 506.186 1647.575 C 510.414 1647.239, 519.446 1646.538, 526.258 1646.019 C 556.056 1643.744, 581.550 1631.441, 605.025 1608.009 C 622.020 1591.045, 637.380 1558.398, 642.904 1527.500 C 645.762 1511.515, 646.562 1463.078, 644.160 1451.500 C 641.914 1440.678, 642.135 1337.301, 644.436 1322 C 645.223 1316.762, 645.885 1304.872, 645.911 1295.500 C 645.944 1283.261, 646.522 1275.139, 647.976 1266.500 C 649.086 1259.900, 649.998 1252.025, 650.003 1249 C 650.008 1245.975, 650.705 1239, 651.552 1233.500 C 652.399 1228, 653.736 1218.550, 654.524 1212.500 C 659.240 1176.293, 662.194 1157.689, 668.017 1127.500 C 669.715 1118.700, 672.212 1105.425, 673.566 1098 C 678.874 1068.886, 680.225 1062.176, 682.524 1053.500 C 683.836 1048.550, 685.875 1039.375, 687.056 1033.110 C 688.236 1026.846, 691.407 1013.578, 694.101 1003.627 C 696.795 993.675, 699 985.039, 699 984.435 C 699 981.822, 715.276 925.353, 719.303 913.995 C 721.739 907.123, 724.675 897.675, 725.826 893 C 726.977 888.325, 730.590 876.400, 733.854 866.500 C 737.117 856.600, 742.144 841.075, 745.024 832 C 747.904 822.925, 753.976 805.600, 758.518 793.500 C 763.060 781.400, 767.718 768.440, 768.871 764.700 C 770.023 760.960, 774.839 748.585, 779.573 737.200 C 789.352 713.682, 795.173 698.746, 798.631 688.295 C 799.942 684.331, 804.661 672.856, 809.118 662.795 C 813.574 652.733, 821.236 634.600, 826.144 622.500 C 831.052 610.400, 837.233 595.550, 839.881 589.500 C 842.528 583.450, 846.441 574.463, 848.575 569.528 C 850.710 564.594, 855.256 555.369, 858.678 549.028 C 862.101 542.688, 866.771 532.775, 869.058 527 C 878.659 502.753, 912.462 435.464, 928.146 409.379 C 944.357 382.417, 946.104 368.442, 933.499 366.552 C 930.960 366.171, 926.097 364.542, 922.692 362.931 C 914.993 359.289, 913.518 359.286, 907.817 362.901 M 1390.951 404.541 C 1385.328 406.274, 1383.764 407.951, 1376.078 420.490 C 1364.222 439.831, 1350.465 482.943, 1348.952 505.500 C 1348.307 515.119, 1347.748 517.556, 1344.499 524.909 C 1339.072 537.189, 1337.162 543.255, 1335.021 555 C 1333.969 560.775, 1331.293 570.557, 1329.074 576.738 C 1320.794 599.808, 1318.941 610.524, 1321.156 622.541 C 1322.262 628.545, 1322.197 629.017, 1319.627 633.656 C 1308.711 653.355, 1303.963 670.997, 1303.251 694.500 C 1302.767 710.500, 1302.767 710.500, 1298.928 717 C 1294.396 724.672, 1289.241 741.907, 1286.061 760.014 C 1284.855 766.881, 1282.090 781.239, 1279.917 791.919 C 1277.743 802.600, 1274.372 821.725, 1272.425 834.419 C 1270.478 847.114, 1268.229 861.775, 1267.428 867 C 1266.627 872.225, 1264.878 882.125, 1263.541 889 C 1259.716 908.674, 1254.276 939.462, 1252.497 951.500 C 1251.603 957.550, 1249.105 972.850, 1246.946 985.500 C 1238.661 1034.039, 1237.213 1044.050, 1236.031 1061 C 1235.551 1067.875, 1234.467 1076.425, 1233.621 1080 C 1232.776 1083.575, 1230.011 1097, 1227.478 1109.834 C 1223.026 1132.385, 1222.170 1139.007, 1219.955 1168 C 1219.388 1175.425, 1218.493 1183.115, 1217.967 1185.089 C 1215.904 1192.823, 1212.005 1213.438, 1211.033 1221.749 C 1210.022 1230.392, 1208.303 1243.012, 1205.480 1262.500 C 1204.684 1268, 1203.782 1275.200, 1203.477 1278.500 C 1203.172 1281.800, 1201.144 1295.975, 1198.970 1310 C 1196.796 1324.025, 1194.300 1340.450, 1193.421 1346.500 C 1192.543 1352.550, 1190.284 1365.375, 1188.401 1375 C 1184.106 1396.955, 1180.323 1419.533, 1179.521 1428 C 1178.798 1435.632, 1175.793 1458.338, 1172.703 1479.500 C 1170.951 1491.502, 1170.512 1499.097, 1170.507 1517.500 C 1170.498 1546.781, 1171.470 1550.713, 1181.459 1561.804 C 1188.790 1569.943, 1189.207 1571.571, 1186.395 1581.042 C 1182.301 1594.827, 1192.605 1613.102, 1218.230 1637.507 C 1236.876 1655.265, 1248.619 1662.634, 1269.057 1669.401 C 1321.200 1686.667, 1377.939 1676.915, 1421.155 1643.259 C 1429.249 1636.955, 1449.890 1610.260, 1455.763 1598.500 C 1459.086 1591.845, 1464.752 1573.079, 1466.483 1562.995 C 1467.379 1557.773, 1468.987 1550.640, 1470.056 1547.145 C 1472.625 1538.747, 1472.509 1532.052, 1469.628 1522.426 C 1468.323 1518.067, 1466.938 1512.025, 1466.550 1509 C 1464.516 1493.167, 1456.364 1459.956, 1448.508 1435.500 C 1444.974 1424.500, 1440.492 1409.875, 1438.546 1403 C 1436.601 1396.125, 1432.727 1383.075, 1429.936 1374 C 1427.146 1364.925, 1423.730 1351.220, 1422.347 1343.543 C 1420.963 1335.867, 1417.441 1319.892, 1414.521 1308.043 C 1408.363 1283.060, 1407.503 1279.148, 1405.940 1269 C 1405.305 1264.875, 1403.475 1254.975, 1401.874 1247 C 1398.819 1231.788, 1396.827 1217.184, 1394.503 1192.973 C 1393.736 1184.983, 1392.679 1176.433, 1392.154 1173.973 C 1391.629 1171.513, 1390.904 1166.800, 1390.542 1163.500 C 1390.180 1160.200, 1389.010 1152.865, 1387.942 1147.199 C 1386.640 1140.291, 1385.999 1132.551, 1385.997 1123.699 C 1385.995 1116.440, 1385.326 1106.675, 1384.510 1102 C 1383.695 1097.325, 1382.598 1085.589, 1382.075 1075.919 C 1381.551 1066.250, 1380.660 1054.550, 1380.095 1049.919 C 1377.773 1030.886, 1376.709 1006.691, 1377.870 999.308 C 1379.490 988.999, 1379.273 981.914, 1377.067 973.167 C 1374.231 961.924, 1373.719 882.855, 1376.420 873.500 C 1379.647 862.329, 1379.940 858.141, 1378.314 846.500 C 1376.589 834.146, 1377.677 803.887, 1380.544 784.500 C 1381.358 779, 1382.208 764.825, 1382.433 753 C 1382.709 738.566, 1383.356 729.200, 1384.404 724.500 C 1385.479 719.679, 1385.971 712.185, 1385.983 700.425 C 1385.995 688.022, 1386.530 680.360, 1387.938 672.425 C 1389.004 666.416, 1390.171 657.675, 1390.532 653 C 1390.893 648.325, 1391.819 640.450, 1392.590 635.500 C 1393.361 630.550, 1393.998 623.125, 1394.006 619 C 1394.020 611.671, 1397.603 585.955, 1400.414 573 C 1402.557 563.128, 1404.345 545.654, 1403.613 541.749 C 1402.469 535.655, 1400.243 534.578, 1387.342 533.881 C 1374.060 533.162, 1366.370 530.156, 1362.278 524.084 C 1357.609 517.157, 1359.719 514.399, 1375.470 506.843 C 1385.016 502.263, 1387.506 501.896, 1398.730 503.412 C 1409.496 504.867, 1411.662 500.800, 1418.387 466.500 C 1430.873 402.825, 1430.892 402.947, 1408.327 403.070 C 1400.347 403.113, 1393.781 403.669, 1390.951 404.541" stroke="none" fill="#27496d" fill-rule="evenodd"/>
</svg>